<svg id="Layer_2" data-name="Layer 2" xmlns="http://www.w3.org/2000/svg" viewBox="0 0 25 25">
<defs><style>.cls-1{fill:#e7e7e7;}</style></defs>
<title>email</title>
<path class="cls-1" d="M21,10.48v7.11a1.59,1.59,0,0,1-1.59,1.59H6.34a1.59,1.59,0,0,1-1.59-1.59v-7a.4.4,0,0,1,.66-.32l5.66,4.51a2.36,2.36,0,0,0,2.88.06l6.4-4.69A.41.41,0,0,1,21,10.48Z"/>
<path class="cls-1" d="M20.82,8a.62.62,0,0,1-.21.76L13.36,14a1.38,1.38,0,0,1-1.67,0L5.1,8.74A.61.61,0,0,1,4.92,8a1.56,1.56,0,0,1,1.42-.89H19.41A1.59,1.59,0,0,1,20.82,8Z"/>
</svg>